# xmcd CD database file
#
# Track frame offsets:
#	180
#	26856
#	59283
#	101420
#	126302
#	161240
#	204354
#	227340
#	265930
#	295547
#	306808
#
# Disc length: 4127 seconds
#
# Revision: 0
# Processed by: cddbd v1.5.2PL0 Copyright (c) Steve Scherf et al.
# Submitted via: CDex 1.70beta2
#
DISCID=94101d0b
DTITLE=Marchel Ivery and Cedar Walton - Marchel's Mode
DYEAR=1994
DGENRE=Jazz
TTITLE0=Marchel's Mode
TTITLE1=Escapade
TTITLE2=Don't Blame Me
TTITLE3=Wee
TTITLE4=Jeannies's Song
TTITLE5=Firm Roots
TTITLE6=Giant Steps
TTITLE7=Nutty
TTITLE8=Every Time We Say Goodbye
TTITLE9=hidden track 1
TTITLE10=hidden track 2
EXTD=YEAR: 1994
EXTT0=
EXTT1=
EXTT2=
EXTT3=
EXTT4=
EXTT5=
EXTT6=
EXTT7=
EXTT8=
EXTT9=
EXTT10=
PLAYORDER=
